<?xml version="1.0" encoding="UTF-8" standalone="no"?>
<svg
   xmlns:dc="http://purl.org/dc/elements/1.1/"
   xmlns:cc="http://creativecommons.org/ns#"
   xmlns:rdf="http://www.w3.org/1999/02/22-rdf-syntax-ns#"
   xmlns:svg="http://www.w3.org/2000/svg"
   xmlns="http://www.w3.org/2000/svg"
   xmlns:sodipodi="http://sodipodi.sourceforge.net/DTD/sodipodi-0.dtd"
   xmlns:inkscape="http://www.inkscape.org/namespaces/inkscape"
   width="11.027782mm"
   height="9.9588852mm"
   viewBox="0 0 11.027782 9.9588852"
   version="1.1"
   id="svg8"
   inkscape:version="1.0.1 (3bc2e813f5, 2020-09-07)"
   sodipodi:docname="codeEditor.svg">
  <defs
     id="defs2" />
  <sodipodi:namedview
     id="base"
     pagecolor="#ffffff"
     bordercolor="#666666"
     borderopacity="1.0"
     inkscape:pageopacity="0.0"
     inkscape:pageshadow="2"
     inkscape:zoom="3.959798"
     inkscape:cx="49.353272"
     inkscape:cy="42.332786"
     inkscape:document-units="mm"
     inkscape:current-layer="text12"
     inkscape:document-rotation="0"
     showgrid="false"
     inkscape:window-width="1346"
     inkscape:window-height="1040"
     inkscape:window-x="78"
     inkscape:window-y="0"
     inkscape:window-maximized="0" />
  <metadata
     id="metadata5">
    <rdf:RDF>
      <cc:Work
         rdf:about="">
        <dc:format>image/svg+xml</dc:format>
        <dc:type
           rdf:resource="http://purl.org/dc/dcmitype/StillImage" />
        <dc:title></dc:title>
      </cc:Work>
    </rdf:RDF>
  </metadata>
  <g
     inkscape:label="Layer 1"
     inkscape:groupmode="layer"
     id="layer1"
     transform="translate(-130.19452,-75.138492)">
    <g
       aria-label="{}"
       id="text12"
       style="font-style:normal;font-weight:normal;font-size:10.5833px;line-height:1.25;font-family:sans-serif;fill:#000000;fill-opacity:1;stroke:none;stroke-width:0.264583">
      <path
         d="m 134.3326,76.355571 q -0.39159,0 -0.60325,0.190499 -0.21167,0.179917 -0.1905,0.560915 l 0.10583,1.650995 q 0.0423,0.529165 -0.26458,0.888997 -0.29633,0.359832 -0.84667,0.465665 0.55034,0.105833 0.84667,0.465666 0.30691,0.359832 0.26458,0.89958 l -0.10583,1.650995 q -0.0106,0.349249 0.20108,0.550331 0.21167,0.1905 0.59267,0.1905 h 0.53974 v 1.227663 h -0.73024 q -0.89958,0 -1.43933,-0.518582 -0.53975,-0.507998 -0.48683,-1.365246 l 0.10583,-1.608661 q 0.0635,-0.878414 -0.86783,-0.878414 h -1.25942 v -1.21708 h 1.25942 q 0.47625,0 0.68791,-0.211666 0.21167,-0.222249 0.17992,-0.656164 l -0.10583,-1.661578 q -0.0423,-0.846664 0.48683,-1.344079 0.52916,-0.497415 1.43933,-0.497415 h 0.73024 v 1.217079 z"
         style="font-style:normal;font-variant:normal;font-weight:bold;font-stretch:normal;font-family:'JetBrains Mono';-inkscape-font-specification:'JetBrains Mono Bold';stroke-width:0.264583"
         id="path14" />
      <path
         d="m 141.22231,79.509394 v 1.21708 h -1.25942 q -0.93133,0 -0.86783,0.878414 l 0.10584,1.608661 q 0.0529,0.857248 -0.48684,1.365246 -0.53974,0.518582 -1.43932,0.518582 h -0.73025 v -1.227663 h 0.53975 q 0.381,0 0.59266,-0.1905 0.21167,-0.201082 0.20108,-0.550331 l -0.10583,-1.650995 q -0.0423,-0.539748 0.254,-0.89958 0.30692,-0.359833 0.85725,-0.465666 -0.55033,-0.105833 -0.85725,-0.465665 -0.29633,-0.359832 -0.254,-0.888997 l 0.10583,-1.650995 q 0.0106,-0.380998 -0.20108,-0.560915 -0.20108,-0.190499 -0.59266,-0.190499 h -0.53975 v -1.217079 h 0.73025 q 0.91016,0 1.43932,0.497415 0.52917,0.497415 0.48684,1.344079 l -0.10584,1.661578 q -0.0317,0.433915 0.17992,0.656164 0.21167,0.211666 0.68791,0.211666 z"
         style="font-style:normal;font-variant:normal;font-weight:bold;font-stretch:normal;font-family:'JetBrains Mono';-inkscape-font-specification:'JetBrains Mono Bold';stroke-width:0.264583"
         id="path16" />
    </g>
  </g>
</svg>
